<svg xmlns="http://www.w3.org/2000/svg" width="1920" height="1080">
    <path d="M216,-190L354,-187L639,-209Z" fill="#d9f0d3" stroke="#d9f0d3" stroke-width="1.51"/>
    <path d="M-210,-230L216,-190L639,-209Z" fill="#e4f4de" stroke="#e4f4de" stroke-width="1.51"/>
    <path d="M-210,-230L639,-209L942,-217Z" fill="#d7efd1" stroke="#d7efd1" stroke-width="1.51"/>
    <path d="M694,1286L496,1289L1077,1295Z" fill="#4d8d54" stroke="#4d8d54" stroke-width="1.51"/>
    <path d="M942,-217L1206,-219L1671,-233Z" fill="#a0d3a5" stroke="#a0d3a5" stroke-width="1.51"/>
    <path d="M-210,-230L942,-217L1671,-233Z" fill="#c1e5bd" stroke="#c1e5bd" stroke-width="1.51"/>
    <path d="M1206,-219L1548,-223L1671,-233Z" fill="#96c89d" stroke="#96c89d" stroke-width="1.51"/>
    <path d="M2004,1265L1857,1309L2074,1273Z" fill="#005723" stroke="#005723" stroke-width="1.51"/>
    <path d="M2013,1078L2084,1158L2099,956Z" fill="#07662b" stroke="#07662b" stroke-width="1.51"/>
    <path d="M2018,999L2013,1078L2099,956Z" fill="#0c6b2f" stroke="#0c6b2f" stroke-width="1.51"/>
    <path d="M2112,68L2010,236L2131,245Z" fill="#659968" stroke="#659968" stroke-width="1.51"/>
    <path d="M2131,245L2118,403L2133,547Z" fill="#4e8d55" stroke="#4e8d55" stroke-width="1.51"/>
    <path d="M2133,547L1943,639L2156,728Z" fill="#328444" stroke="#328444" stroke-width="1.51"/>
    <path d="M2131,245L2133,547L2156,728Z" fill="#41874b" stroke="#41874b" stroke-width="1.51"/>
    <path d="M2075,-62L2112,68L2161,-160Z" fill="#769e79" stroke="#769e79" stroke-width="1.51"/>
    <path d="M2112,68L2131,245L2161,-160Z" fill="#6e9971" stroke="#6e9971" stroke-width="1.51"/>
    <path d="M2131,245L2156,728L2161,-160Z" fill="#5b915f" stroke="#5b915f" stroke-width="1.51"/>
    <path d="M2084,1158L2074,1273L2168,862Z" fill="#036128" stroke="#036128" stroke-width="1.51"/>
    <path d="M2099,956L2084,1158L2168,862Z" fill="#0d682e" stroke="#0d682e" stroke-width="1.51"/>
    <path d="M2156,728L2023,829L2168,862Z" fill="#1d7639" stroke="#1d7639" stroke-width="1.51"/>
    <path d="M2023,829L2099,956L2168,862Z" fill="#177135" stroke="#177135" stroke-width="1.51"/>
    <path d="M2161,-160L2156,728L2168,862Z" fill="#45874d" stroke="#45874d" stroke-width="1.51"/>
    <path d="M2010,236L2118,403L2131,245Z" fill="#5b955f" stroke="#5b955f" stroke-width="1.51"/>
    <path d="M1966,555L1943,639L2133,547Z" fill="#3b8b4a" stroke="#3b8b4a" stroke-width="1.51"/>
    <path d="M1958,-216L2075,-62L2161,-160Z" fill="#7da480" stroke="#7da480" stroke-width="1.51"/>
    <path d="M1943,639L2023,829L2156,728Z" fill="#248140" stroke="#248140" stroke-width="1.51"/>
    <path d="M1935,102L2010,236L2112,68Z" fill="#6ca06f" stroke="#6ca06f" stroke-width="1.51"/>
    <path d="M2075,-62L2022,-43L2112,68Z" fill="#75a078" stroke="#75a078" stroke-width="1.51"/>
    <path d="M2010,236L1962,436L2118,403Z" fill="#55965b" stroke="#55965b" stroke-width="1.51"/>
    <path d="M2118,403L1962,436L2133,547Z" fill="#488e51" stroke="#488e51" stroke-width="1.51"/>
    <path d="M1962,436L1966,555L2133,547Z" fill="#438f4e" stroke="#438f4e" stroke-width="1.51"/>
    <path d="M1958,-216L2022,-43L2075,-62Z" fill="#7ca77f" stroke="#7ca77f" stroke-width="1.51"/>
    <path d="M2004,1265L2074,1273L2084,1158Z" fill="#005723" stroke="#005723" stroke-width="1.51"/>
    <path d="M2022,-43L1935,102L2112,68Z" fill="#73a275" stroke="#73a275" stroke-width="1.51"/>
    <path d="M2023,829L2018,999L2099,956Z" fill="#137134" stroke="#137134" stroke-width="1.51"/>
    <path d="M2013,1078L2004,1265L2084,1158Z" fill="#006026" stroke="#006026" stroke-width="1.51"/>
    <path d="M1671,-233L1790,-172L1958,-216Z" fill="#88b68d" stroke="#88b68d" stroke-width="1.51"/>
    <path d="M1791,1146L1857,1309L2004,1265Z" fill="#006227" stroke="#006227" stroke-width="1.51"/>
    <path d="M1835,399L1962,436L2010,236Z" fill="#589d5e" stroke="#589d5e" stroke-width="1.51"/>
    <path d="M1789,246L1835,399L2010,236Z" fill="#61a466" stroke="#61a466" stroke-width="1.51"/>
    <path d="M1791,1146L2004,1265L2013,1078Z" fill="#006729" stroke="#006729" stroke-width="1.51"/>
    <path d="M1958,-216L1833,-31L2022,-43Z" fill="#7fac82" stroke="#7fac82" stroke-width="1.51"/>
    <path d="M1833,-31L1935,102L2022,-43Z" fill="#78aa7b" stroke="#78aa7b" stroke-width="1.51"/>
    <path d="M1943,639L1851,683L2023,829Z" fill="#288944" stroke="#288944" stroke-width="1.51"/>
    <path d="M1851,683L1832,835L2023,829Z" fill="#228741" stroke="#228741" stroke-width="1.51"/>
    <path d="M1828,948L2018,999L2023,829Z" fill="#147837" stroke="#147837" stroke-width="1.51"/>
    <path d="M1832,835L1828,948L2023,829Z" fill="#1b813c" stroke="#1b813c" stroke-width="1.51"/>
    <path d="M1828,948L2013,1078L2018,999Z" fill="#0d7232" stroke="#0d7232" stroke-width="1.51"/>
    <path d="M1828,948L1791,1146L2013,1078Z" fill="#097331" stroke="#097331" stroke-width="1.51"/>
    <path d="M1935,102L1789,246L2010,236Z" fill="#69a66d" stroke="#69a66d" stroke-width="1.51"/>
    <path d="M1789,122L1789,246L1935,102Z" fill="#6fab74" stroke="#6fab74" stroke-width="1.51"/>
    <path d="M1790,-172L1833,-31L1958,-216Z" fill="#83b287" stroke="#83b287" stroke-width="1.51"/>
    <path d="M1835,399L1821,532L1962,436Z" fill="#4e9c58" stroke="#4e9c58" stroke-width="1.51"/>
    <path d="M1962,436L1821,532L1966,555Z" fill="#479752" stroke="#479752" stroke-width="1.51"/>
    <path d="M1821,532L1943,639L1966,555Z" fill="#3e934d" stroke="#3e934d" stroke-width="1.51"/>
    <path d="M1833,-31L1789,122L1935,102Z" fill="#77ae7a" stroke="#77ae7a" stroke-width="1.51"/>
    <path d="M1821,532L1851,683L1943,639Z" fill="#39934c" stroke="#39934c" stroke-width="1.51"/>
    <path d="M-210,-230L-76,-206L216,-190Z" fill="#eef8ea" stroke="#eef8ea" stroke-width="1.51"/>
    <path d="M859,1272L694,1286L1077,1295Z" fill="#458a4d" stroke="#458a4d" stroke-width="1.51"/>
    <path d="M1718,1092L1791,1146L1828,948Z" fill="#0f7734" stroke="#0f7734" stroke-width="1.51"/>
    <path d="M1689,-11L1789,122L1833,-31Z" fill="#7cb380" stroke="#7cb380" stroke-width="1.51"/>
    <path d="M1789,246L1708,270L1835,399Z" fill="#63a96a" stroke="#63a96a" stroke-width="1.51"/>
    <path d="M1821,532L1709,587L1851,683Z" fill="#3f9850" stroke="#3f9850" stroke-width="1.51"/>
    <path d="M1690,720L1832,835L1851,683Z" fill="#299047" stroke="#299047" stroke-width="1.51"/>
    <path d="M1731,1235L1512,1304L1857,1309Z" fill="#0a672d" stroke="#0a672d" stroke-width="1.51"/>
    <path d="M1791,1146L1731,1235L1857,1309Z" fill="#06682b" stroke="#06682b" stroke-width="1.51"/>
    <path d="M1679,978L1718,1092L1828,948Z" fill="#167e39" stroke="#167e39" stroke-width="1.51"/>
    <path d="M1714,868L1828,948L1832,835Z" fill="#1e853f" stroke="#1e853f" stroke-width="1.51"/>
    <path d="M1709,587L1690,720L1851,683Z" fill="#37974e" stroke="#37974e" stroke-width="1.51"/>
    <path d="M1642,353L1709,587L1821,532Z" fill="#4fa25b" stroke="#4fa25b" stroke-width="1.51"/>
    <path d="M1690,720L1714,868L1832,835Z" fill="#268d46" stroke="#268d46" stroke-width="1.51"/>
    <path d="M1790,-172L1689,-11L1833,-31Z" fill="#84b687" stroke="#84b687" stroke-width="1.51"/>
    <path d="M1642,353L1821,532L1835,399Z" fill="#56a35f" stroke="#56a35f" stroke-width="1.51"/>
    <path d="M1708,270L1642,353L1835,399Z" fill="#61aa69" stroke="#61aa69" stroke-width="1.51"/>
    <path d="M1689,-11L1674,91L1789,122Z" fill="#7bb480" stroke="#7bb480" stroke-width="1.51"/>
    <path d="M1714,868L1679,978L1828,948Z" fill="#1c833f" stroke="#1c833f" stroke-width="1.51"/>
    <path d="M1366,1288L1290,1300L1512,1304Z" fill="#1c7438" stroke="#1c7438" stroke-width="1.51"/>
    <path d="M1708,270L1789,246L1789,122Z" fill="#6dad72" stroke="#6dad72" stroke-width="1.51"/>
    <path d="M1674,91L1708,270L1789,122Z" fill="#73b178" stroke="#73b178" stroke-width="1.51"/>
    <path d="M1671,-233L1689,-11L1790,-172Z" fill="#89ba8d" stroke="#89ba8d" stroke-width="1.51"/>
    <path d="M1718,1092L1731,1235L1791,1146Z" fill="#097130" stroke="#097130" stroke-width="1.51"/>
    <path d="M1206,-219L1433,-185L1548,-223Z" fill="#9acc9f" stroke="#9acc9f" stroke-width="1.51"/>
    <path d="M1575,355L1525,587L1642,353Z" fill="#5cad67" stroke="#5cad67" stroke-width="1.51"/>
    <path d="M1671,-233L1565,-90L1689,-11Z" fill="#8bbe90" stroke="#8bbe90" stroke-width="1.51"/>
    <path d="M1674,91L1524,203L1708,270Z" fill="#74b47a" stroke="#74b47a" stroke-width="1.51"/>
    <path d="M1642,353L1525,587L1709,587Z" fill="#51a65e" stroke="#51a65e" stroke-width="1.51"/>
    <path d="M1690,720L1576,704L1714,868Z" fill="#2d954c" stroke="#2d954c" stroke-width="1.51"/>
    <path d="M1718,1092L1502,1157L1731,1235Z" fill="#0f7634" stroke="#0f7634" stroke-width="1.51"/>
    <path d="M1502,1157L1512,1304L1731,1235Z" fill="#127134" stroke="#127134" stroke-width="1.51"/>
    <path d="M1576,704L1690,720L1709,587Z" fill="#3a9b52" stroke="#3a9b52" stroke-width="1.51"/>
    <path d="M1576,704L1492,854L1714,868Z" fill="#2c944c" stroke="#2c944c" stroke-width="1.51"/>
    <path d="M1679,978L1515,988L1718,1092Z" fill="#1a823d" stroke="#1a823d" stroke-width="1.51"/>
    <path d="M1515,988L1502,1157L1718,1092Z" fill="#19803c" stroke="#19803c" stroke-width="1.51"/>
    <path d="M1492,854L1679,978L1714,868Z" fill="#248b45" stroke="#248b45" stroke-width="1.51"/>
    <path d="M1525,587L1576,704L1709,587Z" fill="#42a057" stroke="#42a057" stroke-width="1.51"/>
    <path d="M1524,203L1642,353L1708,270Z" fill="#6cb173" stroke="#6cb173" stroke-width="1.51"/>
    <path d="M1524,203L1575,355L1642,353Z" fill="#6bb372" stroke="#6bb372" stroke-width="1.51"/>
    <path d="M1548,-223L1565,-90L1671,-233Z" fill="#8fc195" stroke="#8fc195" stroke-width="1.51"/>
    <path d="M1492,854L1515,988L1679,978Z" fill="#248b45" stroke="#248b45" stroke-width="1.51"/>
    <path d="M1565,-90L1674,91L1689,-11Z" fill="#84bb89" stroke="#84bb89" stroke-width="1.51"/>
    <path d="M1565,-90L1491,150L1674,91Z" fill="#82bd88" stroke="#82bd88" stroke-width="1.51"/>
    <path d="M1491,150L1524,203L1674,91Z" fill="#7bba81" stroke="#7bba81" stroke-width="1.51"/>
    <path d="M1429,83L1491,150L1565,-90Z" fill="#86c18b" stroke="#86c18b" stroke-width="1.51"/>
    <path d="M1415,442L1525,587L1575,355Z" fill="#5baf67" stroke="#5baf67" stroke-width="1.51"/>
    <path d="M1415,442L1439,571L1525,587Z" fill="#55ae62" stroke="#55ae62" stroke-width="1.51"/>
    <path d="M1548,-223L1433,-185L1565,-90Z" fill="#92c598" stroke="#92c598" stroke-width="1.51"/>
    <path d="M1377,-42L1429,83L1565,-90Z" fill="#8dc591" stroke="#8dc591" stroke-width="1.51"/>
    <path d="M1524,203L1415,442L1575,355Z" fill="#6ab672" stroke="#6ab672" stroke-width="1.51"/>
    <path d="M1525,587L1380,699L1576,704Z" fill="#42a458" stroke="#42a458" stroke-width="1.51"/>
    <path d="M1380,699L1492,854L1576,704Z" fill="#369f53" stroke="#369f53" stroke-width="1.51"/>
    <path d="M1398,1082L1502,1157L1515,988Z" fill="#1f8640" stroke="#1f8640" stroke-width="1.51"/>
    <path d="M1354,202L1415,442L1524,203Z" fill="#73bc7a" stroke="#73bc7a" stroke-width="1.51"/>
    <path d="M1433,-185L1377,-42L1565,-90Z" fill="#92c797" stroke="#92c797" stroke-width="1.51"/>
    <path d="M1439,571L1380,699L1525,587Z" fill="#4aa95d" stroke="#4aa95d" stroke-width="1.51"/>
    <path d="M1502,1157L1366,1288L1512,1304Z" fill="#197637" stroke="#197637" stroke-width="1.51"/>
    <path d="M1492,854L1386,996L1515,988Z" fill="#289049" stroke="#289049" stroke-width="1.51"/>
    <path d="M1386,996L1398,1082L1515,988Z" fill="#258c45" stroke="#258c45" stroke-width="1.51"/>
    <path d="M1491,150L1354,202L1524,203Z" fill="#7cbe82" stroke="#7cbe82" stroke-width="1.51"/>
    <path d="M1380,699L1347,857L1492,854Z" fill="#369f53" stroke="#369f53" stroke-width="1.51"/>
    <path d="M1347,857L1386,996L1492,854Z" fill="#2f964d" stroke="#2f964d" stroke-width="1.51"/>
    <path d="M1398,1082L1366,1288L1502,1157Z" fill="#1d803d" stroke="#1d803d" stroke-width="1.51"/>
    <path d="M1429,83L1354,202L1491,150Z" fill="#81c287" stroke="#81c287" stroke-width="1.51"/>
    <path d="M1354,202L1226,278L1415,442Z" fill="#74c07c" stroke="#74c07c" stroke-width="1.51"/>
    <path d="M1226,278L1225,398L1415,442Z" fill="#6fc078" stroke="#6fc078" stroke-width="1.51"/>
    <path d="M1415,442L1212,568L1439,571Z" fill="#5ab367" stroke="#5ab367" stroke-width="1.51"/>
    <path d="M1212,568L1380,699L1439,571Z" fill="#4faf62" stroke="#4faf62" stroke-width="1.51"/>
    <path d="M1290,1300L1366,1288L1398,1082Z" fill="#1f7e3d" stroke="#1f7e3d" stroke-width="1.51"/>
    <path d="M1208,1093L1290,1300L1398,1082Z" fill="#248842" stroke="#248842" stroke-width="1.51"/>
    <path d="M1377,-42L1264,108L1429,83Z" fill="#8cc991" stroke="#8cc991" stroke-width="1.51"/>
    <path d="M1264,108L1354,202L1429,83Z" fill="#86c68b" stroke="#86c68b" stroke-width="1.51"/>
    <path d="M1206,-219L1377,-42L1433,-185Z" fill="#99ce9f" stroke="#99ce9f" stroke-width="1.51"/>
    <path d="M1268,784L1347,857L1380,699Z" fill="#3ba458" stroke="#3ba458" stroke-width="1.51"/>
    <path d="M1225,398L1212,568L1415,442Z" fill="#64ba6f" stroke="#64ba6f" stroke-width="1.51"/>
    <path d="M1206,-219L1216,-34L1377,-42Z" fill="#9ad19f" stroke="#9ad19f" stroke-width="1.51"/>
    <path d="M1212,568L1239,722L1380,699Z" fill="#4baf61" stroke="#4baf61" stroke-width="1.51"/>
    <path d="M1347,857L1209,1009L1386,996Z" fill="#30974e" stroke="#30974e" stroke-width="1.51"/>
    <path d="M1386,996L1209,1009L1398,1082Z" fill="#2a9049" stroke="#2a9049" stroke-width="1.51"/>
    <path d="M1209,1009L1208,1093L1398,1082Z" fill="#2b9149" stroke="#2b9149" stroke-width="1.51"/>
    <path d="M1216,-34L1264,108L1377,-42Z" fill="#92cd97" stroke="#92cd97" stroke-width="1.51"/>
    <path d="M1239,722L1268,784L1380,699Z" fill="#40aa5c" stroke="#40aa5c" stroke-width="1.51"/>
    <path d="M1139,941L1209,1009L1347,857Z" fill="#379c52" stroke="#379c52" stroke-width="1.51"/>
    <path d="M1264,108L1226,278L1354,202Z" fill="#83c888" stroke="#83c888" stroke-width="1.51"/>
    <path d="M1268,784L1139,941L1347,857Z" fill="#3aa156" stroke="#3aa156" stroke-width="1.51"/>
    <path d="M639,-209L793,-191L942,-217Z" fill="#c0e5bc" stroke="#c0e5bc" stroke-width="1.51"/>
    <path d="M1120,89L1226,278L1264,108Z" fill="#8bcc8f" stroke="#8bcc8f" stroke-width="1.51"/>
    <path d="M1124,809L1139,941L1268,784Z" fill="#42a65a" stroke="#42a65a" stroke-width="1.51"/>
    <path d="M1208,1093L1112,1119L1290,1300Z" fill="#2c8a45" stroke="#2c8a45" stroke-width="1.51"/>
    <path d="M1112,1119L1077,1295L1290,1300Z" fill="#2e8543" stroke="#2e8543" stroke-width="1.51"/>
    <path d="M1206,-219L1113,-76L1216,-34Z" fill="#a1d5a3" stroke="#a1d5a3" stroke-width="1.51"/>
    <path d="M1212,568L1144,719L1239,722Z" fill="#51b264" stroke="#51b264" stroke-width="1.51"/>
    <path d="M1216,-34L1120,89L1264,108Z" fill="#94d097" stroke="#94d097" stroke-width="1.51"/>
    <path d="M1239,722L1124,809L1268,784Z" fill="#44ab5d" stroke="#44ab5d" stroke-width="1.51"/>
    <path d="M942,-217L1082,-165L1206,-219Z" fill="#addbac" stroke="#addbac" stroke-width="1.51"/>
    <path d="M1082,-165L1113,-76L1206,-219Z" fill="#a6d7a8" stroke="#a6d7a8" stroke-width="1.51"/>
    <path d="M1055,510L1212,568L1225,398Z" fill="#6abe72" stroke="#6abe72" stroke-width="1.51"/>
    <path d="M1125,352L1055,510L1225,398Z" fill="#74c47a" stroke="#74c47a" stroke-width="1.51"/>
    <path d="M1125,352L1225,398L1226,278Z" fill="#7ac57f" stroke="#7ac57f" stroke-width="1.51"/>
    <path d="M1120,89L1087,291L1226,278Z" fill="#89cc8c" stroke="#89cc8c" stroke-width="1.51"/>
    <path d="M1144,719L1124,809L1239,722Z" fill="#49ae60" stroke="#49ae60" stroke-width="1.51"/>
    <path d="M1087,291L1125,352L1226,278Z" fill="#81c984" stroke="#81c984" stroke-width="1.51"/>
    <path d="M1113,-76L1120,89L1216,-34Z" fill="#9cd49e" stroke="#9cd49e" stroke-width="1.51"/>
    <path d="M1112,1119L1208,1093L1209,1009Z" fill="#34944c" stroke="#34944c" stroke-width="1.51"/>
    <path d="M1055,510L1144,719L1212,568Z" fill="#5fb96b" stroke="#5fb96b" stroke-width="1.51"/>
    <path d="M1139,941L1112,1119L1209,1009Z" fill="#399950" stroke="#399950" stroke-width="1.51"/>
    <path d="M986,1128L956,1234L1077,1295Z" fill="#3c8d4a" stroke="#3c8d4a" stroke-width="1.51"/>
    <path d="M980,119L962,260L1087,291Z" fill="#93d191" stroke="#93d191" stroke-width="1.51"/>
    <path d="M927,975L986,1128L1112,1119Z" fill="#439b52" stroke="#439b52" stroke-width="1.51"/>
    <path d="M986,1128L1077,1295L1112,1119Z" fill="#398f4a" stroke="#398f4a" stroke-width="1.51"/>
    <path d="M1113,-76L946,-68L1120,89Z" fill="#a4d8a3" stroke="#a4d8a3" stroke-width="1.51"/>
    <path d="M946,-68L980,119L1120,89Z" fill="#a2d89f" stroke="#a2d89f" stroke-width="1.51"/>
    <path d="M980,119L1087,291L1120,89Z" fill="#95d294" stroke="#95d294" stroke-width="1.51"/>
    <path d="M927,975L1112,1119L1139,941Z" fill="#429e54" stroke="#429e54" stroke-width="1.51"/>
    <path d="M1124,809L959,828L1139,941Z" fill="#4aa95d" stroke="#4aa95d" stroke-width="1.51"/>
    <path d="M1055,510L1001,534L1144,719Z" fill="#67bc6e" stroke="#67bc6e" stroke-width="1.51"/>
    <path d="M925,730L1124,809L1144,719Z" fill="#52b264" stroke="#52b264" stroke-width="1.51"/>
    <path d="M1001,534L925,730L1144,719Z" fill="#60ba6c" stroke="#60ba6c" stroke-width="1.51"/>
    <path d="M925,730L959,828L1124,809Z" fill="#55b264" stroke="#55b264" stroke-width="1.51"/>
    <path d="M947,351L1055,510L1125,352Z" fill="#7dc87f" stroke="#7dc87f" stroke-width="1.51"/>
    <path d="M959,828L927,975L1139,941Z" fill="#4ca75d" stroke="#4ca75d" stroke-width="1.51"/>
    <path d="M1087,291L947,351L1125,352Z" fill="#85cb85" stroke="#85cb85" stroke-width="1.51"/>
    <path d="M1082,-165L946,-68L1113,-76Z" fill="#aadaa9" stroke="#aadaa9" stroke-width="1.51"/>
    <path d="M947,351L1001,534L1055,510Z" fill="#7ac77b" stroke="#7ac77b" stroke-width="1.51"/>
    <path d="M956,1234L859,1272L1077,1295Z" fill="#3e894a" stroke="#3e894a" stroke-width="1.51"/>
    <path d="M962,260L947,351L1087,291Z" fill="#8ccf8a" stroke="#8ccf8a" stroke-width="1.51"/>
    <path d="M942,-217L946,-68L1082,-165Z" fill="#b0ddae" stroke="#b0ddae" stroke-width="1.51"/>
    <path d="M946,-68L811,-28L980,119Z" fill="#acdca8" stroke="#acdca8" stroke-width="1.51"/>
    <path d="M811,-28L789,79L980,119Z" fill="#acdda8" stroke="#acdda8" stroke-width="1.51"/>
    <path d="M927,975L849,1103L986,1128Z" fill="#4a9e57" stroke="#4a9e57" stroke-width="1.51"/>
    <path d="M781,577L849,666L1001,534Z" fill="#74c377" stroke="#74c377" stroke-width="1.51"/>
    <path d="M947,351L789,441L1001,534Z" fill="#83cb82" stroke="#83cb82" stroke-width="1.51"/>
    <path d="M789,441L781,577L1001,534Z" fill="#7ec97e" stroke="#7ec97e" stroke-width="1.51"/>
    <path d="M849,666L925,730L1001,534Z" fill="#6abe71" stroke="#6abe71" stroke-width="1.51"/>
    <path d="M858,848L927,975L959,828Z" fill="#56ad63" stroke="#56ad63" stroke-width="1.51"/>
    <path d="M805,224L962,260L980,119Z" fill="#9cd698" stroke="#9cd698" stroke-width="1.51"/>
    <path d="M849,1103L956,1234L986,1128Z" fill="#459651" stroke="#459651" stroke-width="1.51"/>
    <path d="M789,79L805,224L980,119Z" fill="#a6daa1" stroke="#a6daa1" stroke-width="1.51"/>
    <path d="M349,1256L74,1280L496,1289Z" fill="#6b9a6d" stroke="#6b9a6d" stroke-width="1.51"/>
    <path d="M858,848L852,957L927,975Z" fill="#56ab62" stroke="#56ab62" stroke-width="1.51"/>
    <path d="M942,-217L793,-191L946,-68Z" fill="#b7e1b4" stroke="#b7e1b4" stroke-width="1.51"/>
    <path d="M849,1103L859,1272L956,1234Z" fill="#479251" stroke="#479251" stroke-width="1.51"/>
    <path d="M925,730L858,848L959,828Z" fill="#5cb468" stroke="#5cb468" stroke-width="1.51"/>
    <path d="M805,224L947,351L962,260Z" fill="#95d391" stroke="#95d391" stroke-width="1.51"/>
    <path d="M793,-191L811,-28L946,-68Z" fill="#b7e1b3" stroke="#b7e1b3" stroke-width="1.51"/>
    <path d="M852,957L849,1103L927,975Z" fill="#51a45d" stroke="#51a45d" stroke-width="1.51"/>
    <path d="M805,224L789,441L947,351Z" fill="#93d38f" stroke="#93d38f" stroke-width="1.51"/>
    <path d="M849,666L858,848L925,730Z" fill="#62ba6e" stroke="#62ba6e" stroke-width="1.51"/>
    <path d="M713,379L789,441L805,224Z" fill="#98d593" stroke="#98d593" stroke-width="1.51"/>
    <path d="M628,1147L694,1286L849,1103Z" fill="#549b5b" stroke="#549b5b" stroke-width="1.51"/>
    <path d="M634,656L655,866L849,666Z" fill="#70c179" stroke="#70c179" stroke-width="1.51"/>
    <path d="M718,990L849,1103L852,957Z" fill="#57a660" stroke="#57a660" stroke-width="1.51"/>
    <path d="M849,666L655,866L858,848Z" fill="#66b970" stroke="#66b970" stroke-width="1.51"/>
    <path d="M718,990L852,957L858,848Z" fill="#5bad66" stroke="#5bad66" stroke-width="1.51"/>
    <path d="M655,866L718,990L858,848Z" fill="#62b26c" stroke="#62b26c" stroke-width="1.51"/>
    <path d="M849,1103L694,1286L859,1272Z" fill="#4d9455" stroke="#4d9455" stroke-width="1.51"/>
    <path d="M718,990L628,1147L849,1103Z" fill="#59a461" stroke="#59a461" stroke-width="1.51"/>
    <path d="M781,577L634,656L849,666Z" fill="#79c57c" stroke="#79c57c" stroke-width="1.51"/>
    <path d="M354,-187L487,-166L639,-209Z" fill="#d3eece" stroke="#d3eece" stroke-width="1.51"/>
    <path d="M664,520L781,577L789,441Z" fill="#87cd85" stroke="#87cd85" stroke-width="1.51"/>
    <path d="M639,-209L631,-38L793,-191Z" fill="#c5e8c0" stroke="#c5e8c0" stroke-width="1.51"/>
    <path d="M789,79L665,219L805,224Z" fill="#aadca4" stroke="#aadca4" stroke-width="1.51"/>
    <path d="M665,219L713,379L805,224Z" fill="#a2d99c" stroke="#a2d99c" stroke-width="1.51"/>
    <path d="M793,-191L631,-38L811,-28Z" fill="#bee5b9" stroke="#bee5b9" stroke-width="1.51"/>
    <path d="M631,-38L789,79L811,-28Z" fill="#b9e2b3" stroke="#b9e2b3" stroke-width="1.51"/>
    <path d="M633,82L665,219L789,79Z" fill="#b2e0ac" stroke="#b2e0ac" stroke-width="1.51"/>
    <path d="M631,-38L633,82L789,79Z" fill="#b9e3b3" stroke="#b9e3b3" stroke-width="1.51"/>
    <path d="M713,379L664,520L789,441Z" fill="#90d18d" stroke="#90d18d" stroke-width="1.51"/>
    <path d="M664,520L634,656L781,577Z" fill="#83ca83" stroke="#83ca83" stroke-width="1.51"/>
    <path d="M634,656L567,725L655,866Z" fill="#76c27d" stroke="#76c27d" stroke-width="1.51"/>
    <path d="M665,219L565,388L713,379Z" fill="#a2d99c" stroke="#a2d99c" stroke-width="1.51"/>
    <path d="M565,388L664,520L713,379Z" fill="#98d593" stroke="#98d593" stroke-width="1.51"/>
    <path d="M494,979L628,1147L718,990Z" fill="#64ab6a" stroke="#64ab6a" stroke-width="1.51"/>
    <path d="M655,866L565,876L718,990Z" fill="#69b471" stroke="#69b471" stroke-width="1.51"/>
    <path d="M565,876L494,979L718,990Z" fill="#6ab372" stroke="#6ab372" stroke-width="1.51"/>
    <path d="M633,82L568,113L665,219Z" fill="#b6e2b0" stroke="#b6e2b0" stroke-width="1.51"/>
    <path d="M628,1147L496,1289L694,1286Z" fill="#5a975e" stroke="#5a975e" stroke-width="1.51"/>
    <path d="M494,979L502,1146L628,1147Z" fill="#66a96b" stroke="#66a96b" stroke-width="1.51"/>
    <path d="M631,-38L554,8L633,82Z" fill="#c1e6ba" stroke="#c1e6ba" stroke-width="1.51"/>
    <path d="M487,-166L631,-38L639,-209Z" fill="#cbeac5" stroke="#cbeac5" stroke-width="1.51"/>
    <path d="M567,725L565,876L655,866Z" fill="#72bd7a" stroke="#72bd7a" stroke-width="1.51"/>
    <path d="M526,553L634,656L664,520Z" fill="#89cd88" stroke="#89cd88" stroke-width="1.51"/>
    <path d="M565,388L526,553L664,520Z" fill="#95d491" stroke="#95d491" stroke-width="1.51"/>
    <path d="M568,113L476,211L665,219Z" fill="#b6e2af" stroke="#b6e2af" stroke-width="1.51"/>
    <path d="M476,211L565,388L665,219Z" fill="#addea6" stroke="#addea6" stroke-width="1.51"/>
    <path d="M502,1146L496,1289L628,1147Z" fill="#609e65" stroke="#609e65" stroke-width="1.51"/>
    <path d="M487,-166L554,8L631,-38Z" fill="#caeac3" stroke="#caeac3" stroke-width="1.51"/>
    <path d="M554,8L568,113L633,82Z" fill="#bee5b7" stroke="#bee5b7" stroke-width="1.51"/>
    <path d="M526,553L567,725L634,656Z" fill="#84ca86" stroke="#84ca86" stroke-width="1.51"/>
    <path d="M487,-166L381,-47L554,8Z" fill="#cfecc8" stroke="#cfecc8" stroke-width="1.51"/>
    <path d="M476,211L413,248L565,388Z" fill="#b1e0aa" stroke="#b1e0aa" stroke-width="1.51"/>
    <path d="M339,393L526,553L565,388Z" fill="#a1d89c" stroke="#a1d89c" stroke-width="1.51"/>
    <path d="M413,248L339,393L565,388Z" fill="#aedfa7" stroke="#aedfa7" stroke-width="1.51"/>
    <path d="M366,851L565,876L567,725Z" fill="#79bf7f" stroke="#79bf7f" stroke-width="1.51"/>
    <path d="M383,679L366,851L567,725Z" fill="#81c787" stroke="#81c787" stroke-width="1.51"/>
    <path d="M526,553L383,679L567,725Z" fill="#89cc8b" stroke="#89cc8b" stroke-width="1.51"/>
    <path d="M554,8L395,60L568,113Z" fill="#c3e8bc" stroke="#c3e8bc" stroke-width="1.51"/>
    <path d="M395,60L476,211L568,113Z" fill="#c0e6b9" stroke="#c0e6b9" stroke-width="1.51"/>
    <path d="M366,851L494,979L565,876Z" fill="#75b97b" stroke="#75b97b" stroke-width="1.51"/>
    <path d="M381,-47L395,60L554,8Z" fill="#cbebc4" stroke="#cbebc4" stroke-width="1.51"/>
    <path d="M494,979L359,992L502,1146Z" fill="#6eaf73" stroke="#6eaf73" stroke-width="1.51"/>
    <path d="M349,1256L496,1289L502,1146Z" fill="#649d68" stroke="#649d68" stroke-width="1.51"/>
    <path d="M337,576L383,679L526,553Z" fill="#93d192" stroke="#93d192" stroke-width="1.51"/>
    <path d="M339,393L337,576L526,553Z" fill="#9fd79a" stroke="#9fd79a" stroke-width="1.51"/>
    <path d="M366,851L359,992L494,979Z" fill="#77b87d" stroke="#77b87d" stroke-width="1.51"/>
    <path d="M359,992L331,1164L502,1146Z" fill="#6eab73" stroke="#6eab73" stroke-width="1.51"/>
    <path d="M331,1164L349,1256L502,1146Z" fill="#6aa26e" stroke="#6aa26e" stroke-width="1.51"/>
    <path d="M354,-187L381,-47L487,-166Z" fill="#d6efd0" stroke="#d6efd0" stroke-width="1.51"/>
    <path d="M395,60L413,248L476,211Z" fill="#bfe6b8" stroke="#bfe6b8" stroke-width="1.51"/>
    <path d="M265,511L337,576L339,393Z" fill="#a5daa1" stroke="#a5daa1" stroke-width="1.51"/>
    <path d="M206,1226L74,1280L349,1256Z" fill="#709f73" stroke="#709f73" stroke-width="1.51"/>
    <path d="M243,673L366,851L383,679Z" fill="#89cb8f" stroke="#89cb8f" stroke-width="1.51"/>
    <path d="M194,118L197,205L395,60Z" fill="#ccebc5" stroke="#ccebc5" stroke-width="1.51"/>
    <path d="M395,60L197,205L413,248Z" fill="#c5e8bd" stroke="#c5e8bd" stroke-width="1.51"/>
    <path d="M197,205L339,393L413,248Z" fill="#bbe4b4" stroke="#bbe4b4" stroke-width="1.51"/>
    <path d="M254,954L359,992L366,851Z" fill="#7cbb82" stroke="#7cbb82" stroke-width="1.51"/>
    <path d="M243,673L212,821L366,851Z" fill="#89c88e" stroke="#89c88e" stroke-width="1.51"/>
    <path d="M354,-187L275,-15L381,-47Z" fill="#d8f0d2" stroke="#d8f0d2" stroke-width="1.51"/>
    <path d="M381,-47L275,-15L395,60Z" fill="#d1eecb" stroke="#d1eecb" stroke-width="1.51"/>
    <path d="M275,-15L194,118L395,60Z" fill="#d0edca" stroke="#d0edca" stroke-width="1.51"/>
    <path d="M246,442L265,511L339,393Z" fill="#acdda6" stroke="#acdda6" stroke-width="1.51"/>
    <path d="M216,-190L275,-15L354,-187Z" fill="#ddf2d7" stroke="#ddf2d7" stroke-width="1.51"/>
    <path d="M193,1134L331,1164L359,992Z" fill="#74ae78" stroke="#74ae78" stroke-width="1.51"/>
    <path d="M254,954L193,1134L359,992Z" fill="#7ab47e" stroke="#7ab47e" stroke-width="1.51"/>
    <path d="M337,576L243,673L383,679Z" fill="#94d195" stroke="#94d195" stroke-width="1.51"/>
    <path d="M212,821L254,954L366,851Z" fill="#83c088" stroke="#83c088" stroke-width="1.51"/>
    <path d="M197,205L246,442L339,393Z" fill="#b8e2b1" stroke="#b8e2b1" stroke-width="1.51"/>
    <path d="M331,1164L206,1226L349,1256Z" fill="#6ea271" stroke="#6ea271" stroke-width="1.51"/>
    <path d="M265,511L243,673L337,576Z" fill="#9cd59a" stroke="#9cd59a" stroke-width="1.51"/>
    <path d="M197,205L123,408L246,442Z" fill="#bbe4b4" stroke="#bbe4b4" stroke-width="1.51"/>
    <path d="M193,1134L206,1226L331,1164Z" fill="#73a776" stroke="#73a776" stroke-width="1.51"/>
    <path d="M67,279L123,408L197,205Z" fill="#c3e7bc" stroke="#c3e7bc" stroke-width="1.51"/>
    <path d="M-76,-206L134,-142L216,-190Z" fill="#e8f6e3" stroke="#e8f6e3" stroke-width="1.51"/>
    <path d="M62,576L89,663L243,673Z" fill="#9ed59f" stroke="#9ed59f" stroke-width="1.51"/>
    <path d="M212,821L136,937L254,954Z" fill="#85bf8a" stroke="#85bf8a" stroke-width="1.51"/>
    <path d="M136,937L193,1134L254,954Z" fill="#7fb783" stroke="#7fb783" stroke-width="1.51"/>
    <path d="M62,576L243,673L265,511Z" fill="#a1d79f" stroke="#a1d79f" stroke-width="1.51"/>
    <path d="M121,-13L194,118L275,-15Z" fill="#d7f0d0" stroke="#d7f0d0" stroke-width="1.51"/>
    <path d="M216,-190L134,-142L275,-15Z" fill="#dff3da" stroke="#dff3da" stroke-width="1.51"/>
    <path d="M134,-142L121,-13L275,-15Z" fill="#def3d8" stroke="#def3d8" stroke-width="1.51"/>
    <path d="M129,798L212,821L243,673Z" fill="#8ecb93" stroke="#8ecb93" stroke-width="1.51"/>
    <path d="M246,442L123,408L265,511Z" fill="#afdeaa" stroke="#afdeaa" stroke-width="1.51"/>
    <path d="M123,408L62,576L265,511Z" fill="#addda8" stroke="#addda8" stroke-width="1.51"/>
    <path d="M89,663L129,798L243,673Z" fill="#95d099" stroke="#95d099" stroke-width="1.51"/>
    <path d="M136,937L137,1148L193,1134Z" fill="#7db381" stroke="#7db381" stroke-width="1.51"/>
    <path d="M121,-13L89,93L194,118Z" fill="#d7f0d1" stroke="#d7f0d1" stroke-width="1.51"/>
    <path d="M193,1134L137,1148L206,1226Z" fill="#76a979" stroke="#76a979" stroke-width="1.51"/>
    <path d="M129,798L136,937L212,821Z" fill="#8ac58f" stroke="#8ac58f" stroke-width="1.51"/>
    <path d="M194,118L89,93L197,205Z" fill="#d0edc9" stroke="#d0edc9" stroke-width="1.51"/>
    <path d="M137,1148L74,1280L206,1226Z" fill="#76a478" stroke="#76a478" stroke-width="1.51"/>
    <path d="M89,93L67,279L197,205Z" fill="#cdecc6" stroke="#cdecc6" stroke-width="1.51"/>
    <path d="M136,937L-47,1099L137,1148Z" fill="#81b586" stroke="#81b586" stroke-width="1.51"/>
    <path d="M-64,208L67,279L89,93Z" fill="#d1edcb" stroke="#d1edcb" stroke-width="1.51"/>
    <path d="M-81,531L62,576L123,408Z" fill="#b2dfad" stroke="#b2dfad" stroke-width="1.51"/>
    <path d="M89,663L-22,681L129,798Z" fill="#99d19d" stroke="#99d19d" stroke-width="1.51"/>
    <path d="M-102,872L-50,962L129,798Z" fill="#90c695" stroke="#90c695" stroke-width="1.51"/>
    <path d="M-13,-56L121,-13L134,-142Z" fill="#e4f4de" stroke="#e4f4de" stroke-width="1.51"/>
    <path d="M129,798L-50,962L136,937Z" fill="#8bc291" stroke="#8bc291" stroke-width="1.51"/>
    <path d="M-50,962L-47,1099L136,937Z" fill="#87bc8c" stroke="#87bc8c" stroke-width="1.51"/>
    <path d="M-36,1266L74,1280L137,1148Z" fill="#79a47c" stroke="#79a47c" stroke-width="1.51"/>
    <path d="M-47,1099L-36,1266L137,1148Z" fill="#7eac80" stroke="#7eac80" stroke-width="1.51"/>
    <path d="M-89,398L-81,531L123,408Z" fill="#bae2b4" stroke="#bae2b4" stroke-width="1.51"/>
    <path d="M-76,-206L-13,-56L134,-142Z" fill="#e9f7e4" stroke="#e9f7e4" stroke-width="1.51"/>
    <path d="M-22,681L-102,872L129,798Z" fill="#96cd9b" stroke="#96cd9b" stroke-width="1.51"/>
    <path d="M-68,150L-64,208L89,93Z" fill="#d7efd0" stroke="#d7efd0" stroke-width="1.51"/>
    <path d="M-13,-56L89,93L121,-13Z" fill="#dff3d9" stroke="#dff3d9" stroke-width="1.51"/>
    <path d="M67,279L-89,398L123,408Z" fill="#c1e6bb" stroke="#c1e6bb" stroke-width="1.51"/>
    <path d="M62,576L-22,681L89,663Z" fill="#a2d6a3" stroke="#a2d6a3" stroke-width="1.51"/>
    <path d="M-13,-56L-68,150L89,93Z" fill="#ddf2d7" stroke="#ddf2d7" stroke-width="1.51"/>
    <path d="M-64,208L-89,398L67,279Z" fill="#caeac3" stroke="#caeac3" stroke-width="1.51"/>
    <path d="M-81,531L-22,681L62,576Z" fill="#aadaa8" stroke="#aadaa8" stroke-width="1.51"/>
    <path d="M-154,543L-190,652L-81,531Z" fill="#afddae" stroke="#afddae" stroke-width="1.51"/>
    <path d="M-176,1109L-186,1245L-47,1099Z" fill="#83b087" stroke="#83b087" stroke-width="1.51"/>
    <path d="M-47,1099L-186,1245L-36,1266Z" fill="#7faa82" stroke="#7faa82" stroke-width="1.51"/>
    <path d="M-182,802L-102,872L-22,681Z" fill="#99ce9e" stroke="#99ce9e" stroke-width="1.51"/>
    <path d="M-190,652L-182,802L-22,681Z" fill="#a0d4a4" stroke="#a0d4a4" stroke-width="1.51"/>
    <path d="M-81,531L-190,652L-22,681Z" fill="#a9d9a9" stroke="#a9d9a9" stroke-width="1.51"/>
    <path d="M-76,-206L-238,-43L-13,-56Z" fill="#ebf8e7" stroke="#ebf8e7" stroke-width="1.51"/>
    <path d="M-224,103L-68,150L-13,-56Z" fill="#e0f3da" stroke="#e0f3da" stroke-width="1.51"/>
    <path d="M-238,-43L-224,103L-13,-56Z" fill="#e6f5e1" stroke="#e6f5e1" stroke-width="1.51"/>
    <path d="M-245,298L-89,398L-64,208Z" fill="#ccebc6" stroke="#ccebc6" stroke-width="1.51"/>
    <path d="M-204,989L-176,1109L-50,962Z" fill="#8bbb90" stroke="#8bbb90" stroke-width="1.51"/>
    <path d="M-50,962L-176,1109L-47,1099Z" fill="#87b88c" stroke="#87b88c" stroke-width="1.51"/>
    <path d="M-210,-230L-238,-43L-76,-206Z" fill="#f0faec" stroke="#f0faec" stroke-width="1.51"/>
    <path d="M-89,398L-154,543L-81,531Z" fill="#b7e1b4" stroke="#b7e1b4" stroke-width="1.51"/>
    <path d="M-102,872L-204,989L-50,962Z" fill="#8fc295" stroke="#8fc295" stroke-width="1.51"/>
    <path d="M-223,442L-154,543L-89,398Z" fill="#bce3b8" stroke="#bce3b8" stroke-width="1.51"/>
    <path d="M-68,150L-224,103L-64,208Z" fill="#daf1d4" stroke="#daf1d4" stroke-width="1.51"/>
    <path d="M-224,103L-245,298L-64,208Z" fill="#d6efd1" stroke="#d6efd1" stroke-width="1.51"/>
    <path d="M-245,298L-223,442L-89,398Z" fill="#c6e8c1" stroke="#c6e8c1" stroke-width="1.51"/>
    <path d="M-182,802L-204,989L-102,872Z" fill="#94c799" stroke="#94c799" stroke-width="1.51"/>
    <path d="M-223,442L-190,652L-154,543Z" fill="#b4dfb1" stroke="#b4dfb1" stroke-width="1.51"/>
    <path d="M-204,989L-186,1245L-176,1109Z" fill="#87b58b" stroke="#87b58b" stroke-width="1.51"/>
    <path d="M-190,652L-204,989L-182,802Z" fill="#9acd9f" stroke="#9acd9f" stroke-width="1.51"/>
    <path d="M-223,442L-204,989L-190,652Z" fill="#a4d6a8" stroke="#a4d6a8" stroke-width="1.51"/>
    <path d="M-223,442L-245,298L-204,989Z" fill="#b2ddb0" stroke="#b2ddb0" stroke-width="1.51"/>
    <path d="M-238,-43L-245,298L-224,103Z" fill="#e0f3da" stroke="#e0f3da" stroke-width="1.51"/>
</svg>